# Blender 3.4.1
# www.blender.org
mtllib macaron.mtl
o Kazusa_Original_Macaron
v -0.014256 0.014726 -0.002434
v -0.012968 0.018194 -0.004518
v -0.017009 0.018194 0.000928
v -0.017484 0.014726 0.003976
v -0.013736 0.011258 -0.000041
v -0.012388 0.018194 0.005942
v -0.015741 0.011258 0.006520
v -0.011801 0.014726 0.008360
v -0.011371 0.018194 0.012683
v -0.009717 0.011258 0.009717
v -0.009551 0.014726 0.015175
v -0.004558 0.018194 0.012961
v -0.006520 0.011258 0.015741
v -0.002434 0.014726 0.014256
v 0.000928 0.018194 0.017009
v -0.000000 0.011258 0.013742
v 0.003976 0.014726 0.017484
v 0.005942 0.018194 0.012388
v 0.006520 0.011258 0.015741
v 0.008360 0.014726 0.011801
v 0.012683 0.018194 0.011371
v 0.009717 0.011258 0.009717
v 0.015175 0.014726 0.009551
v 0.012961 0.018194 0.004558
v 0.015741 0.011258 0.006520
v 0.014256 0.014726 0.002434
v 0.013742 0.011258 -0.000000
v 0.014256 0.014726 0.002434
v 0.012961 0.018194 0.004558
v 0.017009 0.018194 -0.000928
v 0.017484 0.014726 -0.003976
v 0.013742 0.011258 -0.000000
v 0.012388 0.018194 -0.005942
v 0.015741 0.011258 -0.006520
v 0.011801 0.014726 -0.008360
v 0.011371 0.018194 -0.012683
v 0.009717 0.011258 -0.009717
v 0.009551 0.014726 -0.015175
v 0.004558 0.018194 -0.012961
v 0.006520 0.011258 -0.015741
v 0.002434 0.014726 -0.014256
v -0.000928 0.018194 -0.017009
v -0.000000 0.011258 -0.013743
v -0.003976 0.014726 -0.017484
v -0.005942 0.018194 -0.012388
v -0.006520 0.011258 -0.015741
v -0.008360 0.014726 -0.011801
v -0.012683 0.018194 -0.011371
v -0.009717 0.011258 -0.009717
v -0.015175 0.014726 -0.009551
v -0.012968 0.018194 -0.004518
v -0.015741 0.011258 -0.006520
v -0.014256 0.014726 -0.002434
v -0.013736 0.011258 -0.000041
v 0.019140 0.021088 -0.000000
v 0.013426 0.017948 -0.013426
v 0.018987 0.017948 -0.000000
v 0.000000 0.017425 -0.000000
v -0.000000 0.017948 -0.018987
v 0.013534 0.021088 -0.013534
v -0.013426 0.017948 -0.013426
v -0.018987 0.017948 -0.000000
v -0.019140 0.021088 -0.000000
v -0.013534 0.021088 -0.013534
v -0.000000 0.021088 -0.019140
v -0.000000 0.024771 -0.018020
v 0.012864 0.024795 -0.012590
v -0.012864 0.024795 -0.012590
v -0.000000 0.028862 -0.014181
v 0.017987 0.024830 0.000220
v 0.010028 0.028862 -0.010028
v 0.013534 0.021088 0.013534
v 0.018987 0.017948 -0.000000
v 0.013426 0.017948 0.013426
v 0.000000 0.021088 0.019140
v 0.000000 0.017425 -0.000000
v 0.012632 0.024852 0.012820
v 0.014181 0.028862 -0.000000
v 0.000000 0.030266 -0.000079
v -0.010028 0.028862 -0.010028
v -0.014181 0.028862 -0.000000
v -0.017987 0.024830 0.000220
v 0.000000 0.017948 0.018987
v -0.013426 0.017948 0.013426
v -0.018987 0.017948 -0.000000
v -0.013534 0.021088 0.013534
v -0.012632 0.024852 0.012820
v -0.010028 0.028862 0.010027
v 0.000000 0.030266 -0.000079
v 0.000000 0.024858 0.018005
v 0.000000 0.028862 0.014181
v 0.010028 0.028862 0.010027
v 0.013426 0.012156 -0.012827
v 0.019140 0.009015 0.000599
v 0.018987 0.012156 0.000599
v 0.000000 0.012679 0.000599
v -0.000000 0.012156 -0.018388
v 0.013534 0.009015 -0.012935
v -0.013426 0.012156 -0.012827
v -0.018987 0.012156 0.000599
v -0.019140 0.009015 0.000599
v -0.013534 0.009015 -0.012935
v -0.000000 0.009015 -0.018541
v -0.000000 0.005333 -0.017421
v 0.012864 0.005309 -0.011991
v -0.012864 0.005309 -0.011991
v -0.000000 0.001241 -0.013582
v 0.017987 0.005273 0.000819
v 0.010028 0.001241 -0.009428
v 0.013534 0.009015 0.014133
v 0.018987 0.012156 0.000599
v 0.013426 0.012156 0.014025
v 0.000000 0.009015 0.019739
v 0.000000 0.012679 0.000599
v 0.012632 0.005252 0.013420
v 0.014181 0.001241 0.000599
v 0.000000 -0.000162 0.000520
v -0.010028 0.001241 -0.009428
v -0.014181 0.001241 0.000599
v -0.017987 0.005273 0.000819
v 0.000000 0.012156 0.019586
v -0.013426 0.012156 0.014025
v -0.018987 0.012156 0.000599
v -0.013534 0.009015 0.014133
v -0.012632 0.005252 0.013420
v -0.010028 0.001241 0.010627
v 0.000000 -0.000162 0.000520
v 0.000000 0.005245 0.018604
v 0.000000 0.001241 0.014780
v 0.010028 0.001241 0.010627
vn -0.9847 0.0778 -0.1562
vn -0.9381 0.3136 -0.1469
vn -0.9857 0.0004 -0.1683
vn -0.9751 0.0011 0.2216
vn -0.9340 -0.3129 -0.1727
vn -0.7654 0.3157 0.5608
vn -0.8209 -0.0750 0.5661
vn -0.8160 0.0004 0.5780
vn -0.8063 0.0766 0.5865
vn -0.7832 -0.3149 0.5361
vn -0.5328 0.0004 0.8463
vn -0.1447 0.3157 0.9378
vn -0.1803 -0.0756 0.9807
vn -0.1683 0.0004 0.9857
vn -0.1554 0.0766 0.9849
vn -0.1747 -0.3149 0.9329
vn 0.2217 0.0004 0.9751
vn 0.5608 0.3157 0.7654
vn 0.5660 -0.0756 0.8209
vn 0.5780 0.0004 0.8160
vn 0.5865 0.0766 0.8063
vn 0.5361 -0.3149 0.7832
vn 0.8463 0.0004 0.5328
vn 0.9378 0.3157 0.1447
vn 0.9807 -0.0756 0.1803
vn 0.9857 0.0004 0.1683
vn 0.9329 -0.3149 0.1747
vn 0.9849 0.0766 0.1554
vn 0.9378 0.3156 0.1447
vn 0.9751 0.0004 -0.2217
vn 0.7654 0.3157 -0.5608
vn 0.8209 -0.0756 -0.5660
vn 0.8160 0.0004 -0.5780
vn 0.8063 0.0766 -0.5865
vn 0.7832 -0.3149 -0.5361
vn 0.5328 0.0004 -0.8463
vn 0.1447 0.3157 -0.9378
vn 0.1803 -0.0756 -0.9807
vn 0.1683 0.0004 -0.9857
vn 0.1554 0.0766 -0.9849
vn 0.1747 -0.3149 -0.9329
vn -0.2217 0.0004 -0.9751
vn -0.5608 0.3157 -0.7654
vn -0.5660 -0.0756 -0.8209
vn -0.5780 0.0004 -0.8160
vn -0.5866 0.0760 -0.8063
vn -0.5361 -0.3149 -0.7832
vn -0.8463 -0.0002 -0.5328
vn -0.9808 -0.0768 -0.1795
vn -0.9339 -0.3129 -0.1727
vn 0.7683 -0.6401 -0.0000
vn 0.5433 -0.6401 -0.5433
vn 0.9929 0.1185 -0.0045
vn -0.0000 -1.0000 -0.0000
vn -0.0000 -0.6401 -0.7683
vn 0.6990 0.1220 -0.7047
vn -0.5433 -0.6401 -0.5433
vn -0.7683 -0.6401 -0.0000
vn -0.9930 0.1184 -0.0043
vn -0.6990 0.1220 -0.7047
vn -0.0000 0.1238 -0.9923
vn -0.0000 0.4814 -0.8765
vn 0.6292 0.4810 -0.6105
vn -0.6294 0.4812 -0.6102
vn -0.0000 0.8605 -0.5094
vn 0.8772 0.4799 0.0149
vn 0.3579 0.8613 -0.3607
vn 0.7043 0.1153 0.7004
vn 0.5433 -0.6401 0.5433
vn -0.0000 0.1141 0.9935
vn 0.6144 0.4789 0.6270
vn 0.5051 0.8631 -0.0022
vn -0.0000 1.0000 -0.0006
vn -0.3579 0.8613 -0.3607
vn -0.5051 0.8631 -0.0022
vn -0.8772 0.4799 0.0149
vn -0.0000 -0.6401 0.7683
vn -0.5433 -0.6401 0.5433
vn -0.7043 0.1153 0.7005
vn -0.6144 0.4789 0.6270
vn -0.3562 0.8646 0.3543
vn -0.0000 0.4784 0.8782
vn -0.0000 0.8652 0.5014
vn 0.3561 0.8647 0.3543
vn 0.7683 0.6401 -0.0000
vn 0.9930 -0.1184 -0.0043
vn 0.5433 0.6401 -0.5433
vn -0.0000 1.0000 -0.0000
vn -0.0000 0.6401 -0.7683
vn 0.6990 -0.1220 -0.7047
vn -0.5433 0.6401 -0.5433
vn -0.7683 0.6401 -0.0000
vn -0.9929 -0.1185 -0.0045
vn -0.6990 -0.1220 -0.7047
vn -0.0000 -0.1238 -0.9923
vn -0.0000 -0.4814 -0.8765
vn 0.6293 -0.4810 -0.6104
vn -0.6294 -0.4812 -0.6102
vn -0.0000 -0.8605 -0.5094
vn 0.8772 -0.4799 0.0149
vn 0.3578 -0.8613 -0.3608
vn 0.7043 -0.1153 0.7005
vn 0.5433 0.6401 0.5433
vn -0.0000 -0.1141 0.9935
vn 0.6144 -0.4789 0.6270
vn 0.5051 -0.8631 -0.0022
vn -0.0000 -1.0000 -0.0006
vn -0.3578 -0.8613 -0.3608
vn -0.5051 -0.8631 -0.0022
vn -0.8772 -0.4799 0.0149
vn -0.0000 0.6401 0.7683
vn -0.5433 0.6401 0.5433
vn -0.7043 -0.1154 0.7005
vn -0.6144 -0.4789 0.6270
vn -0.3562 -0.8646 0.3543
vn -0.0000 -0.4784 0.8781
vn -0.0000 -0.8653 0.5013
vn 0.3562 -0.8646 0.3543
vt 0.987043 0.098251
vt 0.987043 0.031055
vt 0.864764 0.031055
vt 0.864764 0.098251
vt 0.987043 0.165431
vt 0.743095 0.031055
vt 0.864764 0.165431
vt 0.743095 0.098251
vt 0.621467 0.031055
vt 0.743095 0.165431
vt 0.621467 0.098251
vt 0.499843 0.031055
vt 0.621467 0.165431
vt 0.499843 0.098251
vt 0.378221 0.031055
vt 0.499843 0.165431
vt 0.378221 0.098251
vt 0.256597 0.031055
vt 0.318074 0.165431
vt 0.256597 0.098251
vt 0.134975 0.031055
vt 0.318074 0.165431
vt 0.134975 0.098251
vt 0.013351 0.031055
vt 0.134975 0.165431
vt 0.013351 0.098251
vt 0.013351 0.165431
vt 0.987667 0.098251
vt 0.987667 0.031055
vt 0.866045 0.031055
vt 0.866045 0.098251
vt 0.987667 0.165431
vt 0.744421 0.031055
vt 0.866045 0.165431
vt 0.744421 0.098251
vt 0.622798 0.031055
vt 0.744421 0.165431
vt 0.622798 0.098251
vt 0.501174 0.031055
vt 0.622798 0.165431
vt 0.501174 0.098251
vt 0.379551 0.031055
vt 0.501174 0.165431
vt 0.379551 0.098251
vt 0.257920 0.031055
vt 0.318074 0.165431
vt 0.257920 0.098251
vt 0.136250 0.031055
vt 0.318074 0.165431
vt 0.136250 0.098251
vt 0.013976 0.031055
vt 0.136250 0.165431
vt 0.013976 0.098251
vt 0.013976 0.165431
vt 0.491973 0.602112
vt 0.772023 0.526598
vt 0.526940 0.526598
vt 0.772023 0.462709
vt 0.984922 0.526598
vt 0.772023 0.602112
vt 0.772023 0.526598
vt 0.526940 0.526598
vt 0.491973 0.602112
vt 0.772023 0.602112
vt 0.984922 0.602112
vt 0.984922 0.707863
vt 0.772023 0.707863
vt 0.772023 0.707863
vt 0.984922 0.876562
vt 0.491973 0.707863
vt 0.772023 0.806849
vt 0.250942 0.602112
vt 0.457266 0.526598
vt 0.250942 0.526598
vt 0.021191 0.602112
vt 0.250942 0.453852
vt 0.250942 0.707863
vt 0.491973 0.876562
vt 0.772023 0.986761
vt 0.772023 0.806849
vt 0.491973 0.876562
vt 0.491973 0.707863
vt 0.021191 0.526598
vt 0.250942 0.526598
vt 0.457266 0.526598
vt 0.250942 0.602112
vt 0.250942 0.707863
vt 0.250942 0.806849
vt 0.250942 0.986761
vt 0.021191 0.707863
vt 0.021191 0.876562
vt 0.250942 0.806849
vt 0.772023 0.526598
vt 0.491973 0.602112
vt 0.526940 0.526598
vt 0.772023 0.462709
vt 0.984922 0.526598
vt 0.772023 0.602112
vt 0.772023 0.526598
vt 0.526940 0.526598
vt 0.491973 0.602112
vt 0.772023 0.602112
vt 0.984922 0.602112
vt 0.984922 0.707863
vt 0.772023 0.707863
vt 0.772023 0.707863
vt 0.984922 0.876562
vt 0.491973 0.707863
vt 0.772023 0.806849
vt 0.250942 0.602112
vt 0.457266 0.526598
vt 0.250942 0.526598
vt 0.021191 0.602112
vt 0.250942 0.453852
vt 0.250942 0.707863
vt 0.491973 0.876562
vt 0.772023 0.986761
vt 0.772023 0.806849
vt 0.491973 0.876562
vt 0.491973 0.707863
vt 0.021191 0.526598
vt 0.250942 0.526598
vt 0.457266 0.526598
vt 0.250942 0.602112
vt 0.250942 0.707863
vt 0.250942 0.806849
vt 0.250942 0.986761
vt 0.021191 0.707863
vt 0.021191 0.876562
vt 0.250942 0.806849
s 1
usemtl Kazusa_Original_Macaron.001
f 3/3/1 2/2/2 1/1/3
f 4/4/4 3/3/1 1/1/3
f 4/4/4 1/1/3 5/5/5
f 3/3/1 4/4/4 6/6/6
f 7/7/7 4/4/4 5/5/5
f 4/4/4 8/8/8 6/6/6
f 8/8/8 4/4/4 7/7/7
f 9/9/9 6/6/6 8/8/8
f 10/10/10 8/8/8 7/7/7
f 11/11/11 9/9/9 8/8/8
f 11/11/11 8/8/8 10/10/10
f 9/9/9 11/11/11 12/12/12
f 13/13/13 11/11/11 10/10/10
f 11/11/11 14/14/14 12/12/12
f 14/14/14 11/11/11 13/13/13
f 15/15/15 12/12/12 14/14/14
f 16/16/16 14/14/14 13/13/13
f 17/17/17 15/15/15 14/14/14
f 17/17/17 14/14/14 16/16/16
f 15/15/15 17/17/17 18/18/18
f 19/19/19 17/17/17 16/16/16
f 17/17/17 20/20/20 18/18/18
f 20/20/20 17/17/17 19/19/19
f 21/21/21 18/18/18 20/20/20
f 22/22/22 20/20/20 19/19/19
f 23/23/23 21/21/21 20/20/20
f 23/23/23 20/20/20 22/22/22
f 21/21/21 23/23/23 24/24/24
f 25/25/25 23/23/23 22/22/22
f 23/23/23 26/26/26 24/24/24
f 26/26/26 23/23/23 25/25/25
f 27/27/27 26/26/26 25/25/25
f 30/30/28 29/29/29 28/28/26
f 31/31/30 30/30/28 28/28/26
f 31/31/30 28/28/26 32/32/27
f 30/30/28 31/31/30 33/33/31
f 34/34/32 31/31/30 32/32/27
f 31/31/30 35/35/33 33/33/31
f 35/35/33 31/31/30 34/34/32
f 36/36/34 33/33/31 35/35/33
f 37/37/35 35/35/33 34/34/32
f 38/38/36 36/36/34 35/35/33
f 38/38/36 35/35/33 37/37/35
f 36/36/34 38/38/36 39/39/37
f 40/40/38 38/38/36 37/37/35
f 38/38/36 41/41/39 39/39/37
f 41/41/39 38/38/36 40/40/38
f 42/42/40 39/39/37 41/41/39
f 43/43/41 41/41/39 40/40/38
f 44/44/42 42/42/40 41/41/39
f 44/44/42 41/41/39 43/43/41
f 42/42/40 44/44/42 45/45/43
f 46/46/44 44/44/42 43/43/41
f 44/44/42 47/47/45 45/45/43
f 47/47/45 44/44/42 46/46/44
f 48/48/46 45/45/43 47/47/45
f 49/49/47 47/47/45 46/46/44
f 50/50/48 48/48/46 47/47/45
f 50/50/48 47/47/45 49/49/47
f 48/48/46 50/50/48 51/51/2
f 52/52/49 50/50/48 49/49/47
f 50/50/48 53/53/3 51/51/2
f 53/53/3 50/50/48 52/52/49
f 54/54/50 53/53/3 52/52/49
f 57/57/51 56/56/52 55/55/53
f 57/57/51 58/58/54 56/56/52
f 56/56/52 58/58/54 59/59/55
f 56/56/52 60/60/56 55/55/53
f 56/56/52 59/59/55 60/60/56
f 58/58/54 61/61/57 59/59/55
f 58/58/54 62/62/58 61/61/57
f 62/62/58 63/63/59 61/61/57
f 61/61/57 64/64/60 59/59/55
f 63/63/59 64/64/60 61/61/57
f 59/59/55 65/65/61 60/60/56
f 64/64/60 65/65/61 59/59/55
f 65/65/61 66/66/62 60/60/56
f 65/65/61 64/64/60 66/66/62
f 60/60/56 67/67/63 55/55/53
f 66/66/62 67/67/63 60/60/56
f 64/64/60 68/68/64 66/66/62
f 64/64/60 63/63/59 68/68/64
f 66/66/62 69/69/65 67/67/63
f 66/66/62 68/68/64 69/69/65
f 67/67/63 70/70/66 55/55/53
f 69/69/65 71/71/67 67/67/63
f 67/67/63 71/71/67 70/70/66
f 55/55/53 70/70/66 72/72/68
f 73/73/51 55/55/53 72/72/68
f 74/74/69 73/73/51 72/72/68
f 74/74/69 72/72/68 75/75/70
f 74/74/69 76/76/54 73/73/51
f 70/70/66 77/77/71 72/72/68
f 72/72/68 77/77/71 75/75/70
f 71/71/67 78/78/72 70/70/66
f 70/70/66 78/78/72 77/77/71
f 71/71/67 69/69/65 79/79/73
f 78/78/72 71/71/67 79/79/73
f 69/69/65 80/80/74 79/79/73
f 68/68/64 80/80/74 69/69/65
f 80/80/74 81/81/75 79/79/73
f 68/68/64 82/82/76 80/80/74
f 82/82/76 81/81/75 80/80/74
f 63/63/59 82/82/76 68/68/64
f 83/83/77 76/76/54 74/74/69
f 83/83/77 74/74/69 75/75/70
f 76/76/54 83/83/77 84/84/78
f 83/83/77 75/75/70 84/84/78
f 76/76/54 84/84/78 85/85/58
f 86/86/79 63/63/59 85/85/58
f 84/84/78 86/86/79 85/85/58
f 63/63/59 86/86/79 82/82/76
f 75/75/70 86/86/79 84/84/78
f 86/86/79 87/87/80 82/82/76
f 82/82/76 87/87/80 81/81/75
f 86/86/79 75/75/70 87/87/80
f 87/87/80 88/88/81 81/81/75
f 81/81/75 88/88/81 89/89/73
f 75/75/70 90/90/82 87/87/80
f 87/87/80 90/90/82 88/88/81
f 77/77/71 90/90/82 75/75/70
f 88/88/81 91/91/83 89/89/73
f 90/90/82 91/91/83 88/88/81
f 77/77/71 92/92/84 90/90/82
f 92/92/84 91/91/83 90/90/82
f 91/91/83 92/92/84 89/89/73
f 78/78/72 92/92/84 77/77/71
f 92/92/84 78/78/72 89/89/73
f 95/95/85 94/94/86 93/93/87
f 96/96/88 95/95/85 93/93/87
f 96/96/88 93/93/87 97/97/89
f 94/94/86 98/98/90 93/93/87
f 93/93/87 98/98/90 97/97/89
f 99/99/91 96/96/88 97/97/89
f 100/100/92 96/96/88 99/99/91
f 100/100/92 99/99/91 101/101/93
f 99/99/91 97/97/89 102/102/94
f 99/99/91 102/102/94 101/101/93
f 98/98/90 103/103/95 97/97/89
f 97/97/89 103/103/95 102/102/94
f 103/103/95 98/98/90 104/104/96
f 103/103/95 104/104/96 102/102/94
f 98/98/90 94/94/86 105/105/97
f 98/98/90 105/105/97 104/104/96
f 104/104/96 106/106/98 102/102/94
f 102/102/94 106/106/98 101/101/93
f 104/104/96 105/105/97 107/107/99
f 104/104/96 107/107/99 106/106/98
f 94/94/86 108/108/100 105/105/97
f 105/105/97 109/109/101 107/107/99
f 105/105/97 108/108/100 109/109/101
f 94/94/86 110/110/102 108/108/100
f 110/110/102 94/94/86 111/111/85
f 112/112/103 110/110/102 111/111/85
f 113/113/104 110/110/102 112/112/103
f 114/114/88 112/112/103 111/111/85
f 110/110/102 115/115/105 108/108/100
f 110/110/102 113/113/104 115/115/105
f 108/108/100 116/116/106 109/109/101
f 108/108/100 115/115/105 116/116/106
f 107/107/99 109/109/101 117/117/107
f 109/109/101 116/116/106 117/117/107
f 118/118/108 107/107/99 117/117/107
f 107/107/99 118/118/108 106/106/98
f 119/119/109 118/118/108 117/117/107
f 106/106/98 118/118/108 120/120/110
f 118/118/108 119/119/109 120/120/110
f 106/106/98 120/120/110 101/101/93
f 114/114/88 121/121/111 112/112/103
f 121/121/111 113/113/104 112/112/103
f 121/121/111 114/114/88 122/122/112
f 121/121/111 122/122/112 113/113/104
f 122/122/112 114/114/88 123/123/92
f 123/123/92 101/101/93 124/124/113
f 122/122/112 123/123/92 124/124/113
f 101/101/93 120/120/110 124/124/113
f 122/122/112 124/124/113 113/113/104
f 120/120/110 125/125/114 124/124/113
f 120/120/110 119/119/109 125/125/114
f 124/124/113 125/125/114 113/113/104
f 119/119/109 126/126/115 125/125/114
f 126/126/115 119/119/109 127/127/107
f 125/125/114 128/128/116 113/113/104
f 125/125/114 126/126/115 128/128/116
f 113/113/104 128/128/116 115/115/105
f 129/129/117 126/126/115 127/127/107
f 126/126/115 129/129/117 128/128/116
f 115/115/105 128/128/116 130/130/118
f 128/128/116 129/129/117 130/130/118
f 130/130/118 129/129/117 127/127/107
f 115/115/105 130/130/118 116/116/106
f 116/116/106 130/130/118 127/127/107
